<svg width="2" height="2" viewBox="0 0 2 2" fill="none" xmlns="http://www.w3.org/2000/svg">
<g clip-path="url(#clip0_2_4)">
<path fill-rule="evenodd" clip-rule="evenodd" d="M0.950113 0.9357C0.957756 0.930219 0.957756 0.930219 0.971181 0.920613C0.983388 0.911869 0.983387 0.911869 0.990944 0.90645C1.00739 0.894625 1.02014 0.885337 1.03215 0.876394C1.19569 0.754719 1.25367 0.669869 1.25367 0.562494C1.25367 0.342002 0.991475 0.228778 0.835969 0.376057L0.749981 0.457496L0.664025 0.376023C0.508441 0.228553 0.246323 0.34251 0.246323 0.564556C0.246323 0.669688 0.300787 0.749506 0.463321 0.871837C0.47017 0.876994 0.484003 0.887225 0.503614 0.901663L0.503894 0.901869C0.511494 0.907469 0.548049 0.934331 0.550849 0.936419C0.628562 0.994313 0.694731 1.04969 0.749244 1.10266C0.803712 1.04838 0.870706 0.992787 0.950113 0.9357ZM1.37867 0.562494C1.37867 0.725113 1.28749 0.842219 1.10676 0.976681C1.09378 0.98635 1.08033 0.996137 1.0639 1.00795C1.05619 1.01349 1.02875 1.03312 1.02303 1.03723C0.927894 1.10562 0.853387 1.17048 0.799575 1.23134L0.751163 1.28609L0.701469 1.23249C0.645806 1.17245 0.570659 1.10705 0.476172 1.03666C0.468817 1.03119 0.407036 0.985925 0.38815 0.971713C0.208708 0.83665 0.121323 0.724731 0.121323 0.564556C0.121323 0.2301 0.51669 0.0641419 0.750013 0.2853C0.983194 0.0644569 1.37867 0.229513 1.37867 0.562494Z" fill="white"/>
</g>
<defs>
<clipPath id="clip0_2_4">
<rect width="1.5" height="1.5" fill="white"/>
</clipPath>
</defs>
</svg>
