<svg width="100" height="83" viewBox="0 0 100 83" fill="none" xmlns="http://www.w3.org/2000/svg">
<path d="M99.0457 53.6429C99.0457 49.7398 98.245 46.0368 96.7438 42.534C95.3427 39.1313 93.241 36.0288 90.6389 33.4267C88.0368 30.8246 85.0344 28.723 81.6317 27.3219C78.0288 25.8207 74.3259 25.1201 70.5228 25.1201C66.6197 25.1201 62.9167 25.8207 59.4139 27.3219C58.5132 27.7222 57.7126 28.0224 57.012 28.5228V0L42 5.00401V53.6429C42 57.4459 42.7006 61.249 44.2018 64.7518C45.6029 68.1545 47.7046 71.1569 50.3067 73.759C52.9088 76.4611 56.0112 78.4627 59.4139 79.8639C62.9167 81.3651 66.6197 82.1657 70.5228 82.1657C74.3259 82.1657 78.0288 81.3651 81.6317 79.8639C84.9344 78.4627 88.0368 76.361 90.6389 73.759C93.241 71.1569 95.3427 68.1545 96.7438 64.7518C98.245 61.1489 99.0457 57.4459 99.0457 53.6429ZM84.0336 53.6429C84.0336 61.0488 77.9287 67.1537 70.5228 67.1537C63.0168 67.1537 57.012 61.0488 57.012 53.6429C57.012 46.1369 63.0168 40.1321 70.5228 40.1321C77.9287 40.1321 84.0336 46.1369 84.0336 53.6429Z" fill="white"/>
<path d="M23.4188 82.146C33.5268 82.146 41.7334 73.9395 41.7334 63.8314C41.7334 53.7233 33.5268 45.5168 23.4188 45.5168H19.2154C17.7142 45.5168 16.6133 44.3158 16.6133 42.9147C16.6133 41.4135 17.7142 40.2125 19.2154 40.2125H40.1321V24.5H19.2154C9.10729 24.5 0.900734 32.8066 0.900734 42.9147C0.900734 53.0228 9.10729 61.2293 19.2154 61.2293H23.4188C24.8199 61.2293 26.0208 62.4303 26.0208 63.8314C26.0208 65.3326 24.8199 66.4335 23.4188 66.4335H0V82.146H23.4188Z" fill="white"/>
</svg>
