<svg width="522" height="102" viewBox="0 0 522 102" fill="none" xmlns="http://www.w3.org/2000/svg">
<g id="logo-group">
<g id="logo-center">
<g id="title">
<path id="path47122" d="M23.9848 82.4251C34.0929 82.4251 42.2994 74.2186 42.2994 64.1105C42.2994 54.0024 34.0929 45.7959 23.9848 45.7959H19.7814C18.2802 45.7959 17.1793 44.5949 17.1793 43.1938C17.1793 41.6926 18.2802 40.4916 19.7814 40.4916H40.6981V24.7791H19.7814C9.67331 24.7791 1.46676 33.0857 1.46676 43.1938C1.46676 53.3019 9.67331 61.5084 19.7814 61.5084H23.9848C25.3859 61.5084 26.5868 62.7094 26.5868 64.1105C26.5868 65.6117 25.3859 66.7126 23.9848 66.7126H0.566025V82.4251H23.9848Z" fill="white"/>
<path id="path47124" d="M101.397 42.9936C99.8954 39.5909 97.8938 36.5885 95.2917 33.8863C92.5896 31.2842 89.5872 29.2826 86.1845 27.7814C82.6817 26.2802 78.9787 25.5797 75.0756 25.5797C71.2725 25.5797 67.4695 26.2802 63.9667 27.7814C60.564 29.2826 57.5616 31.2842 54.8594 33.8863C52.2573 36.4884 50.2557 39.5909 48.7545 42.9936C47.3534 46.4964 46.5528 50.1994 46.5528 54.1025V96.6365L61.5648 101.64V79.2226C62.3654 79.6229 63.1661 80.0232 63.9667 80.3234C67.4695 81.8246 71.2725 82.6253 75.0756 82.6253C78.8786 82.6253 82.6817 81.8246 86.1845 80.3234C89.5872 78.9223 92.5896 76.9207 95.2917 74.2186C97.8938 71.6165 99.8954 68.6141 101.397 65.2114C102.898 61.7086 103.598 57.9055 103.598 54.1025C103.598 50.1994 102.898 46.4964 101.397 42.9936ZM75.0756 67.6133C67.6696 67.6133 61.5648 61.5084 61.5648 54.1025C61.5648 46.6966 67.6696 40.5917 75.0756 40.5917C82.4815 40.5917 88.5864 46.6966 88.5864 54.1025C88.5864 61.5084 82.4815 67.6133 75.0756 67.6133Z" fill="white"/>
<path id="path47126" d="M133.851 82.5252C137.654 82.5252 141.457 81.7246 144.96 80.3235C148.362 78.8223 151.465 76.8207 154.067 74.2186C156.669 71.5164 158.671 68.514 160.172 65.1113C161.673 61.6085 162.374 57.8055 162.374 54.0024C162.374 50.0993 161.673 46.3963 160.172 42.8935C158.671 39.4908 156.669 36.3883 154.067 33.7863C151.365 31.1842 148.362 29.1826 144.96 27.6814C141.457 26.1802 137.654 25.4796 133.851 25.4796C130.048 25.4796 126.245 26.1802 122.742 27.6814C119.339 29.1826 116.337 31.1842 113.635 33.7863C111.033 36.4884 109.031 39.4908 107.53 42.8935C106.129 46.3963 105.328 50.0993 105.328 54.0024C105.328 57.8055 106.129 61.6085 107.53 65.1113C109.031 68.514 111.033 71.5164 113.635 74.2186C116.337 76.8207 119.339 78.8223 122.742 80.3235C126.245 81.7246 130.048 82.5252 133.851 82.5252ZM133.851 40.4916C141.257 40.4916 147.361 46.5965 147.361 54.0024C147.361 61.4083 141.257 67.5132 133.851 67.5132C126.445 67.5132 120.34 61.4083 120.34 54.0024C120.34 46.5965 126.445 40.4916 133.851 40.4916Z" fill="white"/>
<path id="path47128" d="M199.778 40.0913V26.0801H183.866V8.16577L168.854 13.1698V52.0008C168.854 56.2042 169.654 60.2074 171.256 64.0104C172.757 67.7134 175.059 71.016 177.861 73.8182C180.663 76.7206 183.966 78.9223 187.669 80.5236C191.472 82.1249 195.575 82.9255 199.778 82.9255V67.9135C190.971 67.9135 183.866 60.8078 183.866 52.0008V40.0913H199.778Z" fill="white"/>
<path id="path47130" d="M260.66 54.0024C260.66 50.0993 259.859 46.3963 258.358 42.8935C256.957 39.4908 254.855 36.3883 252.253 33.7862C249.651 31.1842 246.649 29.0825 243.246 27.6814C239.643 26.1802 235.94 25.4796 232.137 25.4796C228.234 25.4796 224.531 26.1802 221.028 27.6814C220.128 28.0817 219.327 28.3819 218.626 28.8823V0.359528L203.614 5.36353V54.0024C203.614 57.8055 204.315 61.6085 205.816 65.1113C207.217 68.514 209.319 71.5164 211.921 74.1185C214.523 76.8207 217.626 78.8222 221.028 80.2234C224.531 81.7246 228.234 82.5252 232.137 82.5252C235.94 82.5252 239.643 81.7246 243.246 80.2234C246.549 78.8222 249.651 76.7206 252.253 74.1185C254.855 71.5164 256.957 68.514 258.358 65.1113C259.859 61.5084 260.66 57.8055 260.66 54.0024ZM245.648 54.0024C245.648 61.4083 239.543 67.5132 232.137 67.5132C224.631 67.5132 218.626 61.4083 218.626 54.0024C218.626 46.4964 224.631 40.4916 232.137 40.4916C239.543 40.4916 245.648 46.4964 245.648 54.0024Z" fill="white"/>
<path id="path47132" d="M290.812 82.5252C294.615 82.5252 298.418 81.7246 301.921 80.3235C305.324 78.8223 308.426 76.8207 311.028 74.2186C313.63 71.5164 315.632 68.514 317.133 65.1113C318.634 61.6085 319.335 57.8055 319.335 54.0024C319.335 50.0993 318.634 46.3963 317.133 42.8935C315.632 39.4908 313.63 36.3883 311.028 33.7863C308.326 31.1842 305.324 29.1826 301.921 27.6814C298.418 26.1802 294.615 25.4796 290.812 25.4796C287.009 25.4796 283.206 26.1802 279.703 27.6814C276.301 29.1826 273.298 31.1842 270.596 33.7863C267.994 36.4884 265.992 39.4908 264.491 42.8935C263.09 46.3963 262.289 50.0993 262.289 54.0024C262.289 57.8055 263.09 61.6085 264.491 65.1113C265.992 68.514 267.994 71.5164 270.596 74.2186C273.298 76.8207 276.301 78.8223 279.703 80.3235C283.206 81.7246 287.009 82.5252 290.812 82.5252ZM290.812 40.4916C298.218 40.4916 304.323 46.5965 304.323 54.0024C304.323 61.4083 298.218 67.5132 290.812 67.5132C283.406 67.5132 277.301 61.4083 277.301 54.0024C277.301 46.5965 283.406 40.4916 290.812 40.4916Z" fill="white"/>
<path id="path47134" d="M350.235 82.5252C354.038 82.5252 357.841 81.7246 361.343 80.3235C364.746 78.8223 367.849 76.8207 370.451 74.2186C373.053 71.5164 375.054 68.514 376.556 65.1113C378.057 61.6085 378.757 57.8055 378.757 54.0024C378.757 50.0993 378.057 46.3963 376.556 42.8935C375.054 39.4908 373.053 36.3883 370.451 33.7863C367.749 31.1842 364.746 29.1826 361.343 27.6814C357.841 26.1802 354.038 25.4796 350.235 25.4796C346.432 25.4796 342.629 26.1802 339.126 27.6814C335.723 29.1826 332.721 31.1842 330.018 33.7863C327.416 36.4884 325.415 39.4908 323.914 42.8935C322.512 46.3963 321.712 50.0993 321.712 54.0024C321.712 57.8055 322.512 61.6085 323.914 65.1113C325.415 68.514 327.416 71.5164 330.018 74.2186C332.721 76.8207 335.723 78.8223 339.126 80.3235C342.629 81.7246 346.432 82.5252 350.235 82.5252ZM350.235 40.4916C357.641 40.4916 363.745 46.5965 363.745 54.0024C363.745 61.4083 357.641 67.5132 350.235 67.5132C342.829 67.5132 336.724 61.4083 336.724 54.0024C336.724 46.5965 342.829 40.4916 350.235 40.4916Z" fill="white"/>
<path id="path47136" d="M418.464 81.8246H436.178L415.662 50.0993L437.379 26.0801H418.164L399.249 47.297V1.16016H384.137V81.8246H399.249V67.6133L405.254 61.1081L418.464 81.8246Z" fill="white"/>
<path id="path47138" d="M457.309 82.225C461.212 82.225 465.015 81.4243 468.618 79.823C472.121 78.3218 475.224 76.1201 477.826 73.4179L467.217 63.4099C464.615 66.2122 461.112 67.7134 457.309 67.7134C452.405 67.7134 448.102 65.1113 445.7 61.3082H485.432V54.0024C485.432 46.4964 482.529 39.3907 477.225 34.0865C471.921 28.7822 464.815 25.7798 457.309 25.7798C449.703 25.7798 442.698 28.7822 437.293 34.0865C431.989 39.3907 429.087 46.4964 429.087 54.0024C429.087 61.5084 431.989 68.6141 437.293 73.9183C442.698 79.2226 449.703 82.225 457.309 82.225ZM445.7 46.7966C448.102 42.8935 452.405 40.2914 457.309 40.2914C462.113 40.2914 466.417 42.8935 468.919 46.7966H445.7Z" fill="white"/>
<path id="path47140" d="M503.92 81.8246V57.205C503.92 47.5973 511.726 39.691 521.434 39.691V24.679C517.03 24.679 512.727 25.5797 508.724 27.281C504.921 28.8823 501.418 31.2842 498.416 34.2866C495.413 37.189 493.111 40.6918 491.41 44.5949C489.709 48.5981 488.908 52.8014 488.908 57.205V81.8246H503.92Z" fill="white"/>
</g>
</g>
</g>
</svg>
